<svg width="433" height="347" xmlns="http://www.w3.org/2000/svg" version="1.1">
 <title>Group 15</title>

 <g>
  <title>Layer 1</title>
  <g stroke="null" fill-rule="evenodd" fill="none" id="Page-1">
   <g stroke="null" id="Artboard-Copy-2">
    <g stroke="null" id="Group-15">
     <g stroke="null" id="Group-14">
      <rect stroke="null" rx="1.82" height="17.32488" width="409.64287" y="-20.00001" x="19.87127" fill="#E7E7EC" id="Rectangle"/>
      <circle stroke="null" r="2.19541" cy="-11.33757" cx="422.29576" fill="#878787" id="Oval"/>
      <circle stroke="null" r="2.19541" cy="-11.33757" cx="413.27279" fill="#878787" id="Oval-Copy-2"/>
      <circle stroke="null" r="2.19541" cy="-11.33757" cx="404.24982" fill="#878787" id="Oval-Copy-3"/>
      <rect stroke="null" rx="1.82" height="221.37349" width="409.64287" y="24.84584" x="19.87127" fill="#FBFBFB" id="Rectangle-Copy-18"/>
      <rect stroke="null" rx="1.82" height="12.51241" width="378.96477" y="4.44309" x="20.77356" fill="#F2F2F6" id="Rectangle-Copy-4"/>
      <rect stroke="null" rx="1.82" height="25.98732" width="186.77549" y="83.55793" x="228.30189" fill="#F2F2F6" id="Rectangle-Copy-5"/>
      <rect stroke="null" rx="1.82" height="13.47491" width="138.05145" y="67.19555" x="277.02593" fill="#F2F2F6" id="Rectangle-Copy-6"/>
      <rect stroke="null" rx="1.82" height="5.77496" width="138.05145" y="94.14536" x="268.00296" fill="#DBDBDC" id="Rectangle-Copy-20"/>
      <rect stroke="null" rx="1.82" height="13.47491" width="74.89066" y="38.32074" x="340.18673" fill="#F2F2F6" id="Rectangle-Copy-19"/>
      <rect stroke="null" rx="1.82" height="13.47491" width="138.05145" y="37.35825" x="31.60113" fill="#F2F2F6" id="Rectangle-Copy-10"/>
      <rect stroke="null" rx="1.82" height="13.47491" width="138.05145" y="56.60812" x="31.60113" fill="#F2F2F6" id="Rectangle-Copy-11"/>
      <rect stroke="null" rx="1.82" height="13.47491" width="138.05145" y="75.85799" x="31.60113" fill="#F2F2F6" id="Rectangle-Copy-12"/>
      <rect stroke="null" rx="1.82" height="13.47491" width="138.05145" y="95.10786" x="31.60113" fill="#F2F2F6" id="Rectangle-Copy-13"/>
      <rect stroke="null" rx="1.82" height="13.47491" width="138.05145" y="123.98266" x="31.60113" fill="#F2F2F6" id="Rectangle-Copy-17"/>
      <rect stroke="null" rx="1.82" height="13.47491" width="138.05145" y="143.23253" x="31.60113" fill="#F2F2F6" id="Rectangle-Copy-16"/>
      <rect stroke="null" rx="1.82" height="13.47491" width="138.05145" y="162.4824" x="31.60113" fill="#F2F2F6" id="Rectangle-Copy-15"/>
      <rect stroke="null" rx="1.82" height="13.47491" width="138.05145" y="181.73227" x="31.60113" fill="#F2F2F6" id="Rectangle-Copy-14"/>
      <rect stroke="null" rx="1.82" height="25.98732" width="186.77549" y="144.19502" x="228.30189" fill="#F2F2F6" id="Rectangle-Copy-8"/>
      <rect stroke="null" rx="1.82" height="25.98732" width="186.77549" y="201.94463" x="228.30189" fill="#F2F2F6" id="Rectangle-Copy-9"/>
      <rect stroke="null" rx="1.82" height="13.47491" width="138.05145" y="127.83263" x="277.02593" fill="#F2F2F6" id="Rectangle-Copy-7"/>
      <polygon stroke="null" points="425.3172480661742,10.699291229248047 419.8687418241425,7.074537754058838 419.8687418241425,14.051909446716309 " fill="#E7E7EC" id="Path-40"/>
      <polygon stroke="null" points="407.2365726985845,10.699291229248047 412.6850789406162,7.074537754058838 412.6850789406162,14.051909446716309 " fill="#E7E7EC" id="Path-40-Copy"/>
      <polyline stroke="null" points="399.7383059056265,-2.6751255989074707 393.3979515758838,-15.59961986541748 353.426096917221,-15.59961986541748 347.66328778612296,-2.6751255989074707 " fill="#FBFBFB" id="Path-42"/>
      <circle stroke="null" r="1.82951" cy="157.18868" cx="403.79867" fill="#DBDBDC" id="Oval-Copy-3"/>
      <circle stroke="null" r="1.82951" cy="157.18868" cx="394.7757" fill="#DBDBDC" id="Oval-Copy-4"/>
      <circle stroke="null" r="1.82951" cy="157.18868" cx="385.75273" fill="#DBDBDC" id="Oval-Copy-5"/>
      <circle stroke="null" r="1.82951" cy="157.18868" cx="376.72976" fill="#DBDBDC" id="Oval-Copy-6"/>
      <circle stroke="null" r="1.82951" cy="157.18868" cx="367.70679" fill="#DBDBDC" id="Oval-Copy-7"/>
      <circle stroke="null" r="1.82951" cy="157.18868" cx="358.68382" fill="#DBDBDC" id="Oval-Copy-8"/>
      <circle stroke="null" r="1.82951" cy="157.18868" cx="349.66084" fill="#DBDBDC" id="Oval-Copy-9"/>
      <circle stroke="null" r="1.82951" cy="157.18868" cx="340.63787" fill="#DBDBDC" id="Oval-Copy-10"/>
     </g>
     <polygon stroke="null" points="428.0586405342474,346.7099914550781 310.8217439076834,257.122802734375 36.39266152287837,256.9302062988281 115.27362784690013,346.7099914550781 " fill="#D8D8D8" id="Path-30"/>
     <polygon stroke="null" points="374.0228886368968,305.1614074707031 352.0133707146597,345.74749755859375 343.5426576311438,345.74749755859375 368.5114691384879,301.8200988769531 " fill="#EFEFEF" id="Path-43"/>
     <polygon stroke="null" points="393.9617250928095,345.74749755859375 403.4551548679119,329.1549072265625 397.50872331389473,324.9382019042969 385.60050816722287,345.74749755859375 " fill="#EFEFEF" id="Path-44"/>
     <polygon stroke="null" points="346.6900513171058,284.7909851074219 342.5497043281903,281.9190979003906 302.5882348721352,345.74749755859375 309.6922026139109,345.74749755859375 " fill="#EFEFEF" id="Path-45"/>
     <polygon stroke="null" points="320.38485989738547,265.6372985839844 269.06950429761855,345.74749755859375 262.5975288130867,345.74749755859375 313.8710049545116,262.74493408203125 " fill="#EFEFEF" id="Path-46"/>
     <polygon stroke="null" points="276.7641116239356,261.7475280761719 226.62740126505378,345.74749755859375 220.6602745609125,345.74749755859375 272.6851351620244,262.74493408203125 " fill="#EFEFEF" id="Path-47"/>
     <polygon stroke="null" points="237.18580346554154,260.6517333984375 185.06019511087106,345.74749755859375 180.70544636667,345.74749755859375 231.1981697490046,261.7475280761719 " fill="#EFEFEF" id="Path-48"/>
     <polygon stroke="null" points="196.35353853358356,260.20556640625 144.21116710731258,345.74749755859375 139.04300489437082,345.74749755859375 190.3671653398269,260.20556640625 " fill="#EFEFEF" id="Path-49"/>
     <polygon stroke="null" points="155.41023471432345,260.20556640625 107.44743699333958,337.7042236328125 103.89180325052075,333.5906677246094 149.46512012440508,260.20556640625 " fill="#EFEFEF" id="Path-50"/>
     <polygon stroke="null" points="114.36511075645285,258.608642578125 84.06204904953483,309.6556396484375 77.86484871733228,305.1614074707031 106.92456461856818,258.608642578125 " fill="#EFEFEF" id="Path-51"/>
     <polygon stroke="null" points="75.33966412673726,256.9302062988281 59.01627039750201,281.9190979003906 53.78417898444968,277.3862609863281 66.68135891423299,256.9302062988281 " fill="#EFEFEF" id="Path-52"/>
     <path stroke="null" opacity="0.81985" fill="#8D8D8D" id="Path-39" d="m430.95745,334.98319c-1.03947,-3.8751 -33.00644,-23.43639 -35.04082,-23.75955c-1.35625,-0.21544 -8.35342,0.48683 -20.99148,2.1068c-4.89343,-5.30708 -8.80339,-7.85445 -11.72986,-7.6421c-2.92647,0.21235 -49.03532,0.21235 -138.32654,0l-13.78678,-4.81247l-33.44467,-5.40677l-40.27798,-13.55001l29.03091,14.26l-31.23942,4.69679l-28.66583,-13.84048l-34.10464,-1.86158l44.939,28.15663l-13.4276,0l0,-4.98856l-26.60849,-0.17839c-2.58592,-0.09057 -4.22023,0.0276 -4.9029,0.35448c-0.68267,0.32689 -0.68267,1.22878 0,2.70566c-12.79565,-0.23617 -20.04434,-0.01692 -21.74605,0.65776c-1.70171,0.67468 -1.54456,2.33308 0.47146,4.97521c-5.98425,-0.27108 -9.86819,0.06986 -11.65181,1.02283c-1.78362,0.95297 -0.70769,2.55712 3.22779,4.81247l47.24356,1.71937c-2.04902,1.7398 -2.67935,3.21233 -1.89098,4.41759c0.78837,1.20525 2.44471,1.748 4.96901,1.62827l52.80583,0.7791c-3.06741,1.02093 -3.94671,2.19707 -2.63788,3.52842c1.96325,1.99702 7.45853,5.89517 13.18593,6.79891c5.72741,0.90374 76.06031,0.57001 83.08885,0c4.68569,-0.38001 2.7891,-2.64631 -5.68977,-6.79891l53.37417,0c1.09026,4.39682 3.02764,6.66312 5.81217,6.79891c4.17678,0.20368 117.74231,-0.18548 122.95008,0c3.47184,0.12365 0.72659,-2.14265 -8.23576,-6.79891c16.22664,2.72908 23.99349,2.80192 23.3005,0.21852z"/>
     <polygon stroke="null" points="299.4496084043167,180.70887756347656 267.35451602060857,180.70887756347656 268.9052600607247,184.04859924316406 303.6121932727292,184.04859924316406 " fill="#7C7C7C" id="Path-20"/>
     <path stroke="null" fill="#7C7C7C" id="Rectangle" d="m351.12981,138.70773l-42.78784,-1.0092c-1.75859,-0.04148 -3.28907,1.27543 -3.62324,3.11763l-7.01052,38.64723c-0.37868,2.08755 0.90081,4.10732 2.8578,4.51126c0.22691,0.04683 0.4575,0.07031 0.68862,0.07011l41.97934,-0.0368c1.69103,-0.00148 3.15438,-1.2552 3.52057,-3.01624l7.81902,-37.60124c0.43166,-2.07583 -0.79595,-4.13189 -2.74195,-4.59235c-0.2306,-0.05457 -0.46566,-0.08485 -0.70181,-0.09041z"/>
     <path stroke="null" fill="#D8D8D8" id="Rectangle-Copy-3" d="m352.93441,138.70773l-42.78784,-1.0092c-1.75859,-0.04148 -3.28907,1.27543 -3.62324,3.11763l-7.01052,38.64723c-0.37868,2.08755 0.90081,4.10732 2.8578,4.51126c0.22691,0.04683 0.4575,0.07031 0.68862,0.07011l41.97934,-0.0368c1.69103,-0.00148 3.15438,-1.2552 3.52057,-3.01624l7.81902,-37.60124c0.43166,-2.07583 -0.79595,-4.13189 -2.74195,-4.59235c-0.2306,-0.05457 -0.46566,-0.08485 -0.70181,-0.09041z"/>
     <rect stroke="null" rx="3.64" height="7.69995" width="178.65482" y="185.01109" x="179.57785" fill="#4A4A4A" id="Rectangle"/>
     <polygon stroke="null" points="289.4645371173574,296.7611083984375 289.9687838570171,305.1383056640625 281.24856251809615,305.6883544921875 280.6434739560136,296.7611083984375 " fill="#BDC8CE" id="Path-17"/>
     <g stroke="null" id="Group-11-Copy">
      <path stroke="null" fill="#871238" id="Path-14" d="m323.21164,316.16007c-0.20557,-1.33108 -0.61823,-2.19007 -1.238,-2.57699c-0.61977,-0.38692 -10.5261,-3.98882 -29.719,-10.80569l-2.70933,-1.90153l-9.02207,4.83264c0.10723,2.3591 0.30113,4.14025 0.58166,5.34343c0.28054,1.20318 0.89895,2.90589 1.85523,5.10814l40.2515,0z"/>
      <polygon stroke="null" points="323.2116292666069,316.1600646972656 323.2116292666069,319.59881591796875 282.49489971365983,319.59881591796875 282.96008906090356,316.1600646972656 " fill="#FFFFFF" id="Path-15"/>
     </g>
     <path stroke="null" fill="#001D3F" id="Path-13" d="m288.63717,296.98453l-33.64422,-88.97472c-1.50333,-2.30999 -2.95556,-3.99953 -4.35672,-5.06863c-1.40116,-1.0691 -3.0925,-1.77814 -5.07403,-2.12712l-79.17196,4.14728l8.27727,32.84333l60.8675,-7.16962c5.32355,13.15458 9.59378,22.81909 12.81068,28.99353c3.2169,6.17444 13.36661,20.19447 30.44915,42.06009l9.84235,-4.70414z"/>
     <polygon stroke="null" points="305.1764079741988,305.6883544921875 296.7645819996724,295.4691162109375 290.73100504985996,301.3765869140625 297.9537253258022,311.2236328125 " fill="#BDC8CE" id="Path-16"/>
     <path stroke="null" fill="#00295B" id="Path-12" d="m301.52967,300.15003c-50.32064,-63.66525 -77.59525,-97.83159 -81.82382,-102.49904c-4.22857,-4.66746 -17.40615,-6.91574 -39.53277,-6.74485l-17.6851,-13.06144l-5.235,0l-29.70973,0.31415c-6.73722,17.46671 -5.17989,30.19587 4.67199,38.18751c9.85188,7.99164 36.61069,11.74036 80.27639,11.24618c6.45754,14.19512 13.67426,26.34055 21.65016,36.43628c7.9759,10.09573 27.62299,24.41474 58.94128,42.95703l8.4466,-6.83582z"/>
     <g stroke="null" id="Group-11">
      <path stroke="null" fill="#AA2450" id="Path-14" d="m339.45298,320.97255c-0.20557,-1.33108 -0.61823,-2.19007 -1.238,-2.57699c-0.61977,-0.38692 -10.5261,-3.98882 -29.719,-10.80569l-2.70933,-1.90153l-9.02207,4.83264c0.10723,2.3591 0.30113,4.14025 0.58166,5.34343c0.28054,1.20318 0.89895,2.90589 1.85523,5.10814l40.2515,0z"/>
      <polygon stroke="null" points="339.4529949462594,320.9725646972656 339.4529949462594,324.4112854003906 298.73626539331235,324.4112854003906 299.2014547405561,320.9725646972656 " fill="#FFFFFF" id="Path-15"/>
     </g>
     <g stroke="null" id="Group-12">
      <path stroke="null" fill="#ABABAB" id="Path-21" d="m112.95194,235.95902l-7.66536,51.68654c-7.25523,1.78613 -12.69665,2.6792 -16.32426,2.6792c-3.62761,0 -8.49906,-0.89307 -14.61435,-2.6792l-7.23189,-53.5177l45.83586,1.83116z"/>
      <ellipse stroke="#D8D8D8" ry="5.19746" rx="24.76805" cy="233.88136" cx="90.02501" fill="#797979" stroke-width="2.457" id="Oval"/>
      <path stroke="null" fill="#ACEEBB" id="Path-25" d="m92.90865,228.6839c10.58779,-26.0626 15.38519,-54.24 14.39218,-84.5322c-0.99299,-30.29221 -7.64092,-58.56673 -19.94378,-84.82359c-13.01395,26.18679 -19.02487,54.41276 -18.03276,84.67789c0.99211,30.26513 8.85357,58.4911 23.58436,84.67789z"/>
      <polygon stroke="null" points="92.90866131439543,228.2493133544922 87.35703678342725,93.56410217285156 90.13840851878558,228.2493133544922 " fill="#359775" id="Path-36"/>
      <path stroke="null" fill="#A5DFB0" id="Path-22" d="m92.90865,228.6839c9.33456,-25.43023 4.2746,-57.54146 -15.1799,-96.33366c-19.45449,-38.79221 -43.41653,-64.5508 -71.88612,-77.27577c7.72949,33.34632 17.94347,62.28122 30.64193,86.80471c12.69845,24.5235 31.50648,53.4584 56.42409,86.80472z"/>
      <path stroke="null" fill="#359775" id="Path-35" d="m94.11198,237.51116c-1.7574,-12.0868 -3.28588,-20.78957 -4.58543,-26.1083c-6.58661,-26.9572 -14.93884,-48.20494 -22.89014,-65.57101c-10.30452,-22.50564 -23.12835,-42.16776 -38.4715,-58.98637c12.74494,14.56457 24.51399,34.23683 35.30715,59.01681c10.79316,24.77997 20.46534,55.29356 29.01655,91.54078l1.62337,0.1081z"/>
      <path stroke="null" fill="#7EC58E" id="Path-23" d="m92.90865,228.6839c-6.63412,-30.37505 -17.45076,-54.98528 -32.44992,-73.83073c-14.99916,-18.84544 -34.37548,-32.17063 -58.12895,-39.97557c13.15654,41.54679 26.04005,70.24229 38.6505,86.08648c12.61046,15.8442 29.91991,25.08413 51.92837,27.71981z"/>
      <path stroke="null" fill="#359775" id="Path-34" d="m94.94829,237.5001c-0.52278,-4.45857 -1.39057,-7.76851 -2.60338,-9.92982c-13.7676,-24.53493 -28.28077,-42.84956 -37.59792,-54.68662c-10.54829,-13.40116 -22.03914,-25.56064 -34.47257,-36.47848c7.17377,7.59118 17.63084,20.31181 31.37119,38.16189c11.95111,15.5257 26.68492,33.47257 38.57234,53.89052c1.18647,2.03789 2.02728,5.15788 2.52244,9.35993l2.20789,-0.31742z"/>
      <path stroke="null" fill="#7EC58E" id="Path-24" d="m92.90865,228.6839c17.65494,-34.01361 28.22764,-58.62385 31.71811,-73.83073c3.49047,-15.20688 3.49047,-36.65854 0,-64.35499c-19.53336,23.3865 -31.21432,43.41967 -35.04288,60.0995c-3.82857,16.67984 -2.72031,42.70857 3.32477,78.08622z"/>
      <polygon stroke="null" points="90.55473849796363,237.15785217285156 111.35850053265312,157.21876525878906 116.98837154486318,114.87759399414062 107.42854796540814,157.5474090576172 88.42810487121278,237.36952209472656 " fill="#359775" id="Path-37"/>
      <path stroke="null" fill="#D6D6D6" id="Path-38" d="m111.3585,244.80472c-6.84507,2.36641 -13.83618,3.54849 -20.97333,3.54623c-7.13714,-0.00226 -14.30998,-1.18884 -21.51849,-3.55971l0.35219,2.6006c7.23238,2.37538 14.28547,3.56632 21.15924,3.57281c6.87378,0.00642 13.72893,-1.17146 20.56543,-3.53363l0.41495,-2.6263z"/>
     </g>
     <g stroke="null" id="Group-13">
      <polygon stroke="null" points="164.94023846382697,244.90541076660156 174.87526511503165,319.59881591796875 171.29880452567886,319.59881591796875 161.31807922024564,244.23934936523438 " fill="#4A4A4A" id="Path-31"/>
      <polygon stroke="null" points="196.66453019863002,241.57049560546875 216.38096904580016,305.1614074707031 212.80445201512885,305.1614074707031 192.27316985248217,241.789794921875 " fill="#4A4A4A" id="Path-31-Copy"/>
      <polygon stroke="null" points="151.1917729405759,239.5076446533203 138.11492148016987,283.98291015625 135.15084919676156,283.0602111816406 148.56785367011616,236.42819213867188 " fill="#4A4A4A" id="Path-32"/>
      <polygon stroke="null" points="135.15084919676156,231.01358032226562 117.31936225043864,293.1400451660156 113.5031765675576,291.58367919921875 132.18216753900742,228.1634521484375 " fill="#4A4A4A" id="Path-33"/>
      <path stroke="null" fill="#F3A00E" id="Path-18" d="m216.7229,237.30494l-4.03244,-9.64624l-27.46319,-0.14031c1.73427,-17.17796 -3.86156,-29.5205 -16.78752,-37.02763c-12.92595,-7.50713 -27.40942,-7.37605 -43.45041,0.39323l16.96256,-76.26851c-6.83205,-7.9588 -19.6873,-10.04625 -38.56572,-6.2624c-18.87842,3.78386 -20.36324,26.94773 -4.45447,69.49163c11.46982,30.86472 26.29699,50.8868 44.4815,60.06621c18.18451,9.17943 42.62106,8.97743 73.30968,-0.60598z"/>
      <path stroke="null" fill="#D18600" id="Path-26" d="m124.98934,190.88399c-10.07909,-5.56536 -16.21704,-11.13305 -18.41386,-16.70305c-4.59151,-11.6417 -4.83765,-19.36249 -4.10224,-27.16024c0.49136,-5.21001 3.29785,-11.97746 6.52243,-15.08593c2.16535,-2.08737 5.71912,-4.77176 14.56507,-3.36613c5.8973,0.93709 10.49683,3.63328 13.79858,8.08857l-12.36998,54.22678z"/>
     </g>
     <polygon stroke="null" points="320.38485989738547,193.03787231445312 317.0108731313376,330.4571533203125 310.01177335937246,330.4571533203125 307.35707475654635,193.09840393066406 " fill="#4A4A4A" id="Path-19"/>
     <polygon stroke="null" points="230.15517181029645,193.03787231445312 226.78118504424856,330.4571533203125 219.78208527228344,330.4571533203125 217.12738666945734,193.09840393066406 " fill="#4A4A4A" id="Path-19-Copy"/>
     <g stroke="null" transform="matrix(-0.976472 -0.183665 -0.172178 1.04162 546.442 -51.0696)" id="Group-10">
      <path stroke="null" fill="#C0305F" id="Path-3" d="m294.72681,192.1139c5.75746,-0.83237 10.10293,-1.7352 13.03643,-2.70848c2.9335,-0.97328 7.08798,-2.89058 12.46344,-5.7519l21.68688,0c6.96383,5.0422 12.36315,8.6186 16.19796,10.72918c3.83481,2.11058 8.85542,4.26906 15.06183,6.47543l5.11058,85.86491l-32.19447,-4.16359l-16.09784,4.1728c-9.63308,-22.86369 -16.67772,-40.27371 -21.13392,-52.23006c-4.45621,-11.95636 -9.1665,-26.08579 -14.13089,-42.38829z"/>
      <path stroke="#FFFFFF" fill="#BDC8CE" stroke-width="0.9034" id="Path-11" d="m320.67819,182.67342c-4.20094,2.3076 -6.21061,4.94963 -6.02902,7.92607c0.2724,4.46467 2.81174,10.13664 14.6698,9.70521c11.85805,-0.43143 16.85592,-6.67647 17.8003,-10.39387c0.62958,-2.47826 -1.10565,-4.89073 -5.20568,-7.23741l-21.2354,0z"/>
      <path stroke="null" fill="#B8C6CF" id="Path-29" d="m233.26599,263.18956l1.29042,-7.31833c-7.87603,-0.74126 -12.54284,-1.00821 -14.00044,-0.80082c-1.4576,0.20738 -5.24013,1.13054 -11.34758,2.7695l-0.16579,1.73064l12.46062,-0.74524c2.99548,1.89761 5.1284,3.08208 6.39879,3.55342c1.27038,0.47134 3.05837,0.74162 5.36398,0.81083z"/>
      <path stroke="null" fill="#961A43" id="Path-4" d="m294.74115,192.11537c-5.66229,14.07263 -9.55885,25.13157 -11.68969,33.1768c-2.13083,8.04523 -4.16932,17.87082 -6.11545,29.47678l-42.73597,0.42476l-0.93405,7.99585l53.17655,12.67885c6.56343,-11.64053 11.24474,-21.00026 14.04394,-28.0792c2.7992,-7.07895 4.95082,-13.4209 6.45488,-19.02587l-12.20021,-36.64797z"/>
      <path stroke="null" transform="rotate(10 232.158 250.589) translate(-23.7971 -130.272)" fill="#D1D9DE" id="Path-28" d="m239.47379,393.21106c2.37531,-5.436 4.00096,-8.77873 4.87694,-10.02817c0.87598,-1.24945 10.23822,-6.14003 28.08672,-14.67173l-1.03454,8.37314c-0.89596,1.3843 -1.63484,2.3967 -2.21662,3.03719c-1.34219,1.47764 -3.0009,2.83306 -4.97612,4.06627c-3.25948,2.03501 -8.45762,3.19232 -15.59442,3.47191l-4.26502,5.75139l-4.87694,0z"/>
      <path stroke="null" fill="#AA2450" id="Path-5" d="m373.28929,200.85813c-3.23044,-1.19634 -7.66056,-0.62041 -13.29037,1.72779c-7.32357,9.7909 -12.47871,18.93003 -15.4654,27.41739c-2.98669,8.48735 -6.8934,19.88948 -11.72014,34.20638l-81.81268,-23.45802l-2.72269,8.59366c21.73891,13.24655 38.31244,21.78917 49.72057,25.62785c11.40814,3.83868 26.49653,6.96126 45.26518,9.36774c12.98283,-19.13626 20.81733,-31.81945 23.50349,-38.04959c8.81098,-20.43568 11.81411,-35.07933 12.07719,-36.7263c0.57506,-3.60018 -0.70949,-6.9124 -5.55515,-8.7069z"/>
      <path stroke="null" fill="#BDC8CE" id="Path-10" d="m319.81646,175.67319l1.32139,15.13766l22.03671,-1.88195l-1.261,-5.68688c-0.90832,0.11462 -1.60933,-2.47446 -2.10304,-7.76723c-0.4937,-5.29278 -0.79179,-13.41456 -0.89426,-24.36534l-19.0998,24.56374z"/>
      <path stroke="null" fill="#D1D9DE" id="Path-6" d="m307.77665,129.0932c-4.26379,10.41092 -6.07047,19.78212 -5.42004,28.11361c0.97565,12.49724 3.36315,19.71455 11.91572,21.76691c8.55257,2.05237 17.312,-10.08062 21.21332,-16.17485c2.60089,-4.06282 4.74353,-13.14518 6.42794,-27.24707l-34.13694,-6.4586z"/>
      <g stroke="null" transform="rotate(8 312.208 150.093) translate(-103.847 -29.7767) translate(93.847 25.7767)" id="Group-16">
       <path stroke="null" fill="#4A545B" id="Fill-350" d="m330.93011,154.15645c-0.10068,0.90936 -0.91923,1.56473 -1.82859,1.46405c-0.90935,-0.10067 -1.56472,-0.91988 -1.46405,-1.82858c0.10068,-0.90935 0.91923,-1.56538 1.82859,-1.46471c0.90935,0.10068 1.56472,0.91989 1.46405,1.82924"/>
       <path stroke="null" fill="#4A545B" id="Fill-352" d="m316.60983,155.76795c-0.10923,0.98831 -0.9995,1.70159 -1.98848,1.5917c-0.98897,-0.10923 -1.70158,-0.9995 -1.5917,-1.98848c0.10923,-0.98831 0.9995,-1.70158 1.98848,-1.5917c0.98831,0.10923 1.70093,0.9995 1.5917,1.98848"/>
       <path stroke="null" fill="#FFFFFF" id="Fill-353" d="m314.29959,156.68125c0.09607,0.01053 0.18885,0.00527 0.27965,-0.00789c-0.59286,-0.0862 -1.01661,-0.62576 -0.95015,-1.22652c0.05725,-0.51784 0.46126,-0.91001 0.9541,-0.97976l-0.03751,-0.00789c-0.61391,-0.06844 -1.16597,0.3744 -1.2344,0.98765c-0.06778,0.61392 0.3744,1.16664 0.98831,1.23441"/>
       <path stroke="null" fill="#FFFFFF" id="Fill-354" d="m329.00019,155.08621c0.09541,0.01053 0.18819,0.0046 0.27965,-0.00856c-0.59351,-0.08619 -1.01727,-0.6251 -0.95081,-1.22585c0.05725,-0.5185 0.46126,-0.91067 0.95476,-0.98042l-0.03751,-0.0079c-0.61391,-0.06777 -1.16663,0.37441 -1.2344,0.98832c-0.06844,0.61326 0.3744,1.16598 0.98831,1.23441"/>
       <path stroke="null" fill="#4A545B" id="Fill-355" d="m312.20715,153.70907c0,0 0.0125,-0.35006 0.23951,-0.81527c0.11055,-0.23227 0.27636,-0.49021 0.50403,-0.73169c0.11844,-0.11449 0.24017,-0.24149 0.38822,-0.33887c0.14805,-0.09739 0.29939,-0.1974 0.46981,-0.26649c0.16516,-0.07962 0.34414,-0.11844 0.51851,-0.1599c0.17305,-0.05264 0.354,-0.02895 0.52048,-0.04408c0.16779,-0.00461 0.32702,0.03816 0.47639,0.05922c0.15068,0.01579 0.27965,0.08554 0.40204,0.12633c0.24675,0.07831 0.4198,0.21385 0.54416,0.29281c0.12239,0.08423 0.18687,0.13687 0.18687,0.13687c0,0 -0.08751,-0.00263 -0.23293,-0.01448c-0.14542,-0.00789 -0.34216,-0.04935 -0.57904,-0.04606c-0.11712,0.00329 -0.24083,-0.02171 -0.37045,-0.00658c-0.12963,0.01382 -0.26452,0.01185 -0.39941,0.03093c-0.13291,0.03027 -0.27373,0.04014 -0.40664,0.08422c-0.13423,0.04014 -0.27241,0.07436 -0.39809,0.14345c-0.26781,0.09738 -0.50337,0.27043 -0.73104,0.42901c-0.21977,0.17174 -0.41651,0.35401 -0.5843,0.52048c-0.32966,0.33624 -0.54812,0.6001 -0.54812,0.6001"/>
       <path stroke="null" fill="#4A545B" id="Fill-356" d="m327.46442,151.57183c0,0 0.1316,-0.32374 0.50403,-0.683c0.18358,-0.1803 0.42836,-0.36585 0.72446,-0.51522c0.15068,-0.06646 0.3086,-0.14344 0.48099,-0.1849c0.17306,-0.04079 0.3494,-0.0829 0.53298,-0.08948c0.18227,-0.01777 0.36388,0.00723 0.5422,0.02829c0.18029,0.00921 0.34216,0.09409 0.50337,0.13686c0.15989,0.0533 0.29478,0.14805 0.42704,0.21846c0.1362,0.06646 0.23359,0.177 0.33492,0.25662c0.20464,0.15858 0.3211,0.34545 0.41059,0.46192c0.0862,0.12107 0.12897,0.19279 0.12897,0.19279c0,0 -0.08159,-0.03224 -0.21385,-0.09344c-0.13423,-0.0579 -0.30465,-0.16384 -0.52837,-0.24214c-0.11121,-0.03751 -0.21912,-0.10265 -0.34545,-0.13357c-0.12634,-0.03027 -0.25268,-0.07896 -0.38559,-0.10726c-0.13621,-0.01776 -0.2711,-0.05593 -0.41125,-0.05988c-0.14016,-0.00921 -0.28163,-0.02368 -0.4231,-0.00197c-0.28491,-0.00066 -0.56588,0.08093 -0.83368,0.15266c-0.26518,0.08554 -0.51258,0.18884 -0.72775,0.28754c-0.42441,0.20332 -0.72051,0.37572 -0.72051,0.37572"/>
      </g>
      <path stroke="null" transform="rotate(-10 -583.091 -33.7494)" fill="#4A545B" id="Fill-351" d="m274.32337,303.16418c4.57078,0 6.30959,-3.21408 6.3297,-3.25182c0.06951,-0.13372 0.01091,-0.29494 -0.13097,-0.36072c-0.14246,-0.06524 -0.31422,-0.01024 -0.38487,0.12294c-0.08674,0.16445 -2.19434,4.01962 -8.20064,2.66896c-0.15452,-0.03343 -0.30962,0.055 -0.34639,0.1995c-0.03676,0.14504 0.0586,0.29008 0.21255,0.32513c0.92197,0.20705 1.76064,0.29601 2.52062,0.29601"/>
      <path stroke="null" fill="#3A3F47" id="Path-8" d="m298.60385,122.21309c5.24416,-3.81461 39.56856,-1.90247 47.62533,5.98553c5.37117,5.25867 3.55389,18.14253 -5.45186,38.65156l-3.21462,1.20032l1.81628,-14.1718c-3.88771,4.22267 -6.36376,5.65292 -7.42814,4.29075c-1.06439,-1.36218 -0.39797,-5.10835 1.99924,-11.23851l-3.11658,-1.3831l2.4471,-5.30436c-13.89389,1.09493 -23.16963,0.43152 -27.82722,-1.99022c-6.98638,-3.63261 -12.09369,-12.22555 -6.84953,-16.04017z"/>
      <circle stroke="#4A4A4A" r="6.825" cy="150.36842" cx="319.509" stroke-width="0.91" id="Oval"/>
      <circle stroke="#4A4A4A" r="6.825" cy="148.54842" cx="303.129" stroke-width="0.91" id="Oval-Copy"/>
      <polygon stroke="null" points="326.8210754394531,149.4938201904297 347.2333068847656,149.90475463867188 346.4988708496094,152.95556640625 326.8210754394531,150.54554748535156 " fill="#4A4A4A" id="Path-9"/>
      <path stroke="null" fill="#D1D9DE" id="Path-7" d="m331.95104,160.47233c-0.03136,-1.50907 3.56433,-6.84458 5.25755,-8.53173c1.69323,-1.68716 3.35069,-2.12881 4.70497,-1.39505c1.35427,0.73377 1.45317,2.6134 1.05915,4.51811c-0.39402,1.90471 -1.28285,3.67905 -3.11267,5.40867c-1.82981,1.72962 -3.44298,2.03709 -4.76443,2.03709c-1.32144,0 -3.11321,-0.52802 -3.14457,-2.03709z"/>
      <path stroke="#4A4A4A" stroke-width="0.91" id="Path-53" d="m309.90875,149.22737c0.74788,-0.13577 1.29736,-0.17271 1.64841,-0.11081c0.35106,0.0619 0.75329,0.20637 1.20671,0.43341"/>
      <path stroke="null" fill="#4A4A4A" id="Path-54" d="m296.47024,147.3743l6.32506,-0.22545c-0.02692,0.32453 -0.04758,0.57764 -0.06197,0.75933c-0.01439,0.1817 -0.03508,0.45055 -0.06205,0.80655l-6.12887,-0.32225l-0.07217,-1.01818z"/>
     </g>
     <path stroke="null" fill="#D18600" id="Path-27" d="m211.08198,228.09696c-5.13775,2.65472 -9.17396,4.37547 -12.10864,5.16227c-2.93468,0.7868 -7.57238,1.2546 -13.91313,1.40342l0.00485,-7.29816l26.01692,0.73248z"/>
     <path stroke="null" fill="#B6B6B6" id="Path-41" d="m330.90701,157.09808c2.20863,0.41387 3.94293,3.1409 3.71812,5.21043c-0.22482,2.06952 -2.35628,4.17492 -4.69015,3.73757c-2.33387,-0.43733 -3.97485,-2.73647 -3.73386,-4.9549c0.24099,-2.21843 2.49725,-4.40698 4.7059,-3.99311z"/>
    </g>
   </g>
  </g>
 </g>
</svg>